<?xml version="1.0" encoding="UTF-8" standalone="no"?>
<!-- Created with Inkscape (http://www.inkscape.org/) -->

<svg
   width="192.97845mm"
   height="71.317101mm"
   viewBox="0 0 192.97845 71.317102"
   version="1.1"
   id="svg1"
   xml:space="preserve"
   xmlns="http://www.w3.org/2000/svg"
   xmlns:svg="http://www.w3.org/2000/svg"><defs
     id="defs1" /><g
     id="layer1"
     transform="translate(-48.175451,-68.126016)"><rect
       style="fill:#ffffff;fill-opacity:1;stroke-width:0.25741;stroke-miterlimit:3"
       id="rect2"
       width="297"
       height="210"
       x="1.8000416e-14"
       y="-2.8421709e-14" /><g
       id="g9"
       transform="translate(-20.685778,-1.2154337)"><path
         id="path21"
         style="font-weight:500;font-size:25.4px;font-family:Montserrat;-inkscape-font-specification:'Montserrat, Medium';stroke-width:0.640301;stroke-miterlimit:3"
         d="m 220.33152,93.665222 c -0.71953,0 -1.32332,0.23147 -1.81156,0.69402 -0.46255,0.46256 -0.69403,1.04089 -0.69403,1.73472 0,0.66812 0.23148,1.23293 0.69403,1.69548 0.48824,0.46256 1.09203,0.69405 1.81156,0.69405 0.74523,0 1.34899,-0.23149 1.81154,-0.69405 0.46256,-0.48824 0.69405,-1.07929 0.69405,-1.77312 0,-0.66814 -0.24422,-1.22021 -0.73246,-1.65708 -0.46256,-0.46255 -1.05359,-0.69402 -1.77313,-0.69402 z m 14.91044,0.34662 c -2.15858,0 -3.82912,0.60378 -5.01119,1.81155 -1.15639,1.18208 -1.7347,2.77545 -1.7347,4.779848 v 1.81156 h -3.46862 v 3.04513 h 3.46862 v 17.38467 h 3.70074 v -17.38467 h 5.85895 v -3.04513 h -5.9358 v -1.77314 c 0,-1.182078 0.28241,-2.068258 0.84775,-2.659308 0.56534,-0.61673 1.38788,-0.92538 2.46717,-0.92538 0.53965,0 1.05354,0.0898 1.54178,0.26978 0.48825,0.15419 0.92498,0.38568 1.31044,0.69405 l 1.11831,-2.8138 c -0.51396,-0.41117 -1.14397,-0.7063 -1.88921,-0.88618 -0.71952,-0.20559 -1.47764,-0.30898 -2.27424,-0.30898 z M 98.403576,95.862612 V 122.8446 h 3.854444 V 95.862612 Z m 29.867164,2.08132 v 4.470868 h -3.46941 v 3.04513 h 3.46941 v 11.21754 c 0,2.05578 0.5648,3.63565 1.69547,4.74063 1.1307,1.10498 2.72407,1.65785 4.77985,1.65785 0.84802,0 1.65782,-0.11534 2.42874,-0.34663 0.79662,-0.23128 1.47757,-0.59162 2.0429,-1.07988 l -1.15673,-2.65929 c -0.77092,0.64243 -1.73426,0.9638 -2.89065,0.9638 -1.02789,0 -1.82495,-0.29591 -2.3903,-0.88695 -0.53965,-0.59105 -0.80933,-1.43903 -0.80933,-2.54402 v -11.06305 h 5.85895 v -3.04513 h -5.85895 v -4.470868 z m -11.95002,4.278728 c -1.8502,0 -3.46902,0.37229 -4.85668,1.11752 -1.03597,0.55636 -1.87066,1.2779 -2.5056,2.16367 v -3.08905 h -3.54626 v 20.4298 h 3.70075 v -10.5235 c 0,-1.49045 0.25694,-2.73618 0.7709,-3.73838 0.53964,-1.0022 1.29774,-1.7603 2.27425,-2.27426 0.97649,-0.51395 2.11961,-0.77089 3.43017,-0.77089 1.74744,0 3.0966,0.50116 4.04738,1.50336 0.97651,1.0022 1.46494,2.49216 1.46494,4.47085 v 11.33282 h 3.70076 v -11.75629 c 0,-2.0044 -0.36035,-3.66219 -1.07988,-4.97276 -0.71954,-1.31057 -1.72107,-2.28744 -3.00593,-2.92986 -1.25916,-0.64244 -2.72445,-0.96303 -4.3948,-0.96303 z m 33.14992,0 c -1.95301,0 -3.71342,0.44946 -5.28095,1.34886 -1.54184,0.87372 -2.76213,2.094 -3.66155,3.66155 -0.87371,1.56752 -1.31044,3.36693 -1.31044,5.39702 0,2.0301 0.44946,3.8287 1.34886,5.39624 0.92511,1.56755 2.20984,2.80135 3.85447,3.70075 1.67034,0.89941 3.59781,1.34887 5.78207,1.34887 1.69603,0 3.22497,-0.2824 4.58693,-0.84774 1.38767,-0.56536 2.54429,-1.38788 3.4694,-2.46717 l -2.0429,-2.39032 c -0.74522,0.82231 -1.61945,1.43961 -2.62166,1.85077 -0.9765,0.41116 -2.06794,0.6164 -3.27569,0.6164 -1.46476,0 -2.76299,-0.29515 -3.89367,-0.88617 -1.1307,-0.59104 -2.01686,-1.41358 -2.65932,-2.46718 -0.45506,-0.79637 -0.74101,-1.67057 -0.86029,-2.62086 h 16.58712 c 0.0256,-0.17988 0.0384,-0.37319 0.0384,-0.57876 0.0256,-0.20558 0.0384,-0.38537 0.0384,-0.53955 0,-2.10719 -0.43673,-3.94478 -1.31045,-5.5123 -0.84801,-1.59325 -2.0301,-2.82627 -3.54625,-3.69998 -1.51615,-0.8737 -3.26384,-1.31043 -5.24253,-1.31043 z m 23.27575,0 c -1.95299,0 -3.59806,0.37229 -4.93432,1.11752 -1.09345,0.60979 -1.92836,1.44372 -2.5056,2.50089 v -3.42627 h -3.54626 v 20.4298 h 3.70075 v -10.17608 c 0,-2.23568 0.57831,-3.9444 1.7347,-5.12647 1.15639,-1.18208 2.72351,-1.77313 4.70221,-1.77313 h 0.38584 c 0.15418,0 0.3085,0.0121 0.46268,0.0384 z m 13.0989,0 c -1.85021,0 -3.46905,0.37229 -4.85671,1.11752 -1.03595,0.55636 -1.87064,1.2779 -2.50559,2.16367 v -3.08905 h -3.54626 v 20.4298 h 3.70077 v -10.5235 c 0,-1.49045 0.25694,-2.73618 0.77087,-3.73838 0.53965,-1.0022 1.29777,-1.7603 2.27425,-2.27426 0.97651,-0.51395 2.11963,-0.77089 3.4302,-0.77089 1.74742,0 3.09658,0.50116 4.04738,1.50336 0.9765,1.0022 1.46492,2.49216 1.46492,4.47085 v 11.33282 h 3.69998 v -11.75629 c 0,-2.0044 -0.35958,-3.66219 -1.0791,-4.97276 -0.71952,-1.31057 -1.72184,-2.28744 -3.00671,-2.92986 -1.25918,-0.64244 -2.72368,-0.96303 -4.394,-0.96303 z m 21.46341,0 c -2.08149,0 -3.94453,0.44946 -5.58917,1.34886 -1.61893,0.87372 -2.89092,2.094 -3.81603,3.66155 -0.92511,1.56752 -1.38728,3.36693 -1.38728,5.39702 0,2.0301 0.46217,3.8287 1.38728,5.39624 0.92511,1.56755 2.1971,2.80135 3.81603,3.70075 1.64464,0.89941 3.50768,1.34887 5.58917,1.34887 1.85022,0 3.49528,-0.37308 4.93433,-1.11831 1.46476,-0.77092 2.59515,-1.86234 3.39178,-3.27569 l -2.8138,-1.77314 c -0.66813,1.0022 -1.49067,1.74679 -2.46718,2.23504 -0.95078,0.46255 -1.97857,0.69404 -3.08355,0.69404 -1.33628,0 -2.5311,-0.29515 -3.58469,-0.88617 -1.05359,-0.59104 -1.88886,-1.42631 -2.50559,-2.5056 -0.61673,-1.0793 -0.92461,-2.35127 -0.92461,-3.81603 0,-1.46475 0.30788,-2.72401 0.92461,-3.77761 0.61673,-1.07929 1.452,-1.91455 2.50559,-2.50559 1.05359,-0.59103 2.24841,-0.88696 3.58469,-0.88696 1.10498,0 2.13277,0.24422 3.08355,0.73247 0.97651,0.46255 1.79905,1.19519 2.46718,2.19739 l 2.8138,-1.81155 c -0.79663,-1.43906 -1.92702,-2.51854 -3.39178,-3.23806 -1.43905,-0.74523 -3.08411,-1.11752 -4.93433,-1.11752 z m 11.17283,0.19214 v 20.4298 h 3.70076 v -20.4298 z m 21.69476,0 9.01544,20.37805 -0.6509,1.43904 c -0.51395,1.18208 -1.06604,2.00462 -1.65708,2.46717 -0.59105,0.46255 -1.3364,0.69404 -2.23581,0.69404 -0.69383,0 -1.34931,-0.12884 -1.96605,-0.38584 -0.61674,-0.25697 -1.18153,-0.62927 -1.69549,-1.11752 l -1.58099,2.77537 c 0.66813,0.61674 1.4652,1.07891 2.39031,1.38728 0.92511,0.33408 1.87574,0.50113 2.85222,0.50113 1.0536,0 2.01692,-0.17978 2.89065,-0.53955 0.8737,-0.33406 1.67077,-0.91238 2.3903,-1.7347 0.74521,-0.82232 1.41347,-1.95271 2.00448,-3.39177 l 9.90632,-22.4727 h -3.62313 l -7.05957,16.32597 -7.12545,-16.32597 z m -90.70565,2.92986 c 1.31058,0 2.45448,0.29512 3.43099,0.88616 1.00219,0.56534 1.78576,1.36243 2.35109,2.39032 0.42871,0.77948 0.68677,1.64041 0.7756,2.58244 h -13.13026 c 0.10821,-0.93277 0.37091,-1.7811 0.79049,-2.54401 0.56536,-1.0536 1.34971,-1.86341 2.35191,-2.42875 1.00219,-0.59104 2.14531,-0.88616 3.43018,-0.88616 z" /><path
         id="path7"
         style="fill:#006fff;fill-opacity:1;stroke-width:0.189145;stroke-miterlimit:3"
         d="m 85.672601,69.341455 a 0.4483039,0.4483039 0 0 0 -0.31677,0.131258 l -2.72904,2.727999 a 1.0820014,1.0820014 0 0 0 -0.31729,0.765328 v 11.655619 a 1.344866,1.344866 0 0 1 -1.34462,1.345138 h -10.75903 a 1.344866,1.344866 0 0 0 -1.34462,1.34462 v 44.380753 a 1.344866,1.344866 0 0 0 1.34462,1.34462 h 4.03438 a 1.344866,1.344866 0 0 0 1.34513,-1.34462 V 94.035552 a 1.344866,1.344866 0 0 1 1.34462,-1.344618 h 10.75904 a 1.344866,1.344866 0 0 0 1.34513,-1.345137 V 72.96604 a 1.0824759,1.0824759 0 0 0 -0.31729,-0.765328 l -2.72696,-2.727999 a 0.4483039,0.4483039 0 0 0 -0.3173,-0.131258 z m -15.46675,3.17655 a 1.344866,1.344866 0 0 0 -1.34462,1.344621 v 9.862447 a 1.344866,1.344866 0 0 0 1.34462,1.345138 h 4.03489 a 1.344866,1.344866 0 0 0 1.34462,-1.345138 V 80.58728 a 1.344866,1.344866 0 0 1 1.34514,-1.345137 h 3.13779 a 1.344866,1.344866 0 0 0 1.34514,-1.344621 v -4.034896 a 1.344866,1.344866 0 0 0 -1.34514,-1.344621 z m 13.44879,21.070037 a 1.344866,1.344866 0 0 0 -1.34514,1.34513 v 37.656098 a 1.344866,1.344866 0 0 1 -1.34462,1.34514 h -10.75903 a 1.344866,1.344866 0 0 0 -1.34462,1.34462 v 4.0349 a 1.344866,1.344866 0 0 0 1.34462,1.34462 h 17.48317 a 1.344866,1.344866 0 0 0 1.34513,-1.34462 V 94.933171 a 1.344866,1.344866 0 0 0 -1.34513,-1.34513 z" /></g></g></svg>
